<?xml version="1.0" encoding="UTF-8"?>
<svg width="180" height="180" viewBox="0 0 180 180" fill="none" xmlns="http://www.w3.org/2000/svg">
  <defs>
    <linearGradient id="ring" x1="20" y1="20" x2="160" y2="160" gradientUnits="userSpaceOnUse">
      <stop stop-color="#22D3EE"/>
      <stop offset="1" stop-color="#22C55E"/>
    </linearGradient>
    <linearGradient id="accent" x1="0" y1="0" x2="1" y2="1">
      <stop stop-color="#67E8F9"/>
      <stop offset="1" stop-color="#4ADE80"/>
    </linearGradient>
    <filter id="softGlow" x="-20%" y="-20%" width="140%" height="140%">
      <feGaussianBlur stdDeviation="4" result="blur"/>
      <feMerge>
        <feMergeNode in="blur"/>
        <feMergeNode in="SourceGraphic"/>
      </feMerge>
    </filter>
  </defs>
  <circle cx="90" cy="90" r="68" stroke="url(#ring)" stroke-width="6" opacity="0.25"/>
  <circle cx="90" cy="90" r="48" stroke="url(#ring)" stroke-width="6" opacity="0.45"/>
  <g stroke="#2A4A5A" stroke-width="4" stroke-linecap="round">
    <path d="M90 90 L45 50"/>
    <path d="M90 90 L148 60"/>
    <path d="M90 90 L155 130"/>
    <path d="M90 90 L70 155"/>
    <path d="M90 90 L35 105"/>
  </g>
  <circle cx="90" cy="90" r="16" fill="#0F172A" stroke="url(#ring)" stroke-width="5"/>
  <circle cx="45" cy="50" r="8" fill="url(#accent)"/>
  <circle cx="148" cy="60" r="8" fill="url(#accent)"/>
  <circle cx="155" cy="130" r="8" fill="url(#accent)"/>
  <circle cx="70" cy="155" r="8" fill="url(#accent)"/>
  <circle cx="35" cy="105" r="8" fill="url(#accent)"/>
  <path stroke="url(#ring)" stroke-width="8" stroke-linecap="round" stroke-linejoin="round" filter="url(#softGlow)"
        d="M38 98 H62 L74 76 L87 122 L106 63 L121 98 H145"/>
</svg>
